<?xml version="1.0" encoding="UTF-8"?>
<svg xmlns="http://www.w3.org/2000/svg" xmlns:xlink="http://www.w3.org/1999/xlink" width="462pt" height="50pt" viewBox="0 0 462 50" version="1.1">
<g id="surface1">
<path style=" stroke:none;fill-rule:nonzero;fill:rgb(0%,0%,0%);fill-opacity:1;" d="M 24.671875 34.59375 L 10.171875 34.59375 L 7.40625 41.265625 L 0 41.265625 L 13.921875 10.132812 L 21.058594 10.132812 L 35.023438 41.265625 L 27.4375 41.265625 Z M 22.398438 29.125 L 17.445312 17.203125 L 12.492188 29.125 Z M 22.398438 29.125 "/>
<path style=" stroke:none;fill-rule:nonzero;fill:rgb(0%,0%,0%);fill-opacity:1;" d="M 52.683594 10.132812 C 55.449219 10.132812 57.84375 10.59375 59.867188 11.511719 C 61.917969 12.429688 63.496094 13.734375 64.59375 15.425781 C 65.695312 17.113281 66.246094 19.117188 66.246094 21.429688 C 66.246094 23.710938 65.695312 25.714844 64.59375 27.433594 C 63.496094 29.125 61.917969 30.429688 59.867188 31.347656 C 57.84375 32.238281 55.449219 32.679688 52.683594 32.679688 L 46.390625 32.679688 L 46.390625 41.265625 L 39.164062 41.265625 L 39.164062 10.132812 Z M 52.28125 26.8125 C 54.453125 26.8125 56.101562 26.351562 57.234375 25.433594 C 58.363281 24.484375 58.929688 23.148438 58.929688 21.429688 C 58.929688 19.679688 58.363281 18.34375 57.234375 17.425781 C 56.101562 16.476562 54.453125 16.003906 52.28125 16.003906 L 46.390625 16.003906 L 46.390625 26.8125 Z M 52.28125 26.8125 "/>
<path style=" stroke:none;fill-rule:nonzero;fill:rgb(0%,0%,0%);fill-opacity:1;" d="M 75.9375 10.132812 L 82.40625 19.5625 L 88.875 10.132812 L 97.355469 10.132812 L 86.957031 25.03125 L 98.203125 41.265625 L 89.679688 41.265625 L 82.40625 30.945312 L 75.222656 41.265625 L 66.882812 41.265625 L 78.035156 25.34375 L 67.59375 10.132812 Z M 75.9375 10.132812 "/>
<path style=" stroke:none;fill-rule:nonzero;fill:rgb(0%,0%,0%);fill-opacity:1;" d="M 101.511719 10.132812 L 108.695312 10.132812 L 108.695312 30.414062 L 123.597656 10.132812 L 130.378906 10.132812 L 130.378906 41.265625 L 123.242188 41.265625 L 123.242188 21.027344 L 108.339844 41.265625 L 101.511719 41.265625 Z M 101.511719 10.132812 "/>
<path style=" stroke:none;fill-rule:nonzero;fill:rgb(0%,0%,0%);fill-opacity:1;" d="M 162.023438 16.003906 L 152.03125 16.003906 L 152.03125 41.265625 L 144.890625 41.265625 L 144.890625 16.003906 L 134.941406 16.003906 L 134.941406 10.132812 L 162.023438 10.132812 Z M 162.023438 16.003906 "/>
<path style=" stroke:none;fill-rule:nonzero;fill:rgb(0%,0%,0%);fill-opacity:1;" d="M 190.742188 35.484375 L 190.742188 41.265625 L 166.5625 41.265625 L 166.5625 10.132812 L 190.164062 10.132812 L 190.164062 15.914062 L 173.746094 15.914062 L 173.746094 22.675781 L 188.246094 22.675781 L 188.246094 28.277344 L 173.746094 28.277344 L 173.746094 35.484375 Z M 190.742188 35.484375 "/>
<path style=" stroke:none;fill-rule:nonzero;fill:rgb(0%,0%,0%);fill-opacity:1;" d="M 208.671875 28.722656 L 203.675781 28.722656 L 203.675781 41.265625 L 196.492188 41.265625 L 196.492188 10.132812 L 203.675781 10.132812 L 203.675781 22.71875 L 208.851562 22.71875 L 217.058594 10.132812 L 224.6875 10.132812 L 214.472656 25.164062 L 225 41.265625 L 216.792969 41.265625 Z M 208.671875 28.722656 "/>
<path style=" stroke:none;fill-rule:nonzero;fill:rgb(0%,0%,0%);fill-opacity:1;" d="M 251.90625 16.003906 L 241.914062 16.003906 L 241.914062 41.265625 L 234.777344 41.265625 L 234.777344 16.003906 L 224.828125 16.003906 L 224.828125 10.132812 L 251.90625 10.132812 Z M 251.90625 16.003906 "/>
<path style=" stroke:none;fill-rule:nonzero;fill:rgb(0%,0%,0%);fill-opacity:1;" d="M 283.292969 10.132812 L 269.996094 34.773438 C 268.71875 37.144531 267.171875 38.9375 265.355469 40.152344 C 263.570312 41.367188 261.625 41.976562 259.511719 41.976562 C 257.875 41.976562 256.179688 41.621094 254.425781 40.910156 L 256.167969 35.4375 C 257.414062 35.824219 258.457031 36.015625 259.289062 36.015625 C 260.183594 36.015625 260.984375 35.808594 261.699219 35.394531 C 262.414062 34.949219 263.066406 34.269531 263.664062 33.347656 L 263.929688 32.992188 L 251.613281 10.132812 L 259.335938 10.132812 L 267.632812 26.855469 L 276.199219 10.132812 Z M 283.292969 10.132812 "/>
<path style=" stroke:none;fill-rule:nonzero;fill:rgb(0%,0%,0%);fill-opacity:1;" d="M 300.246094 10.132812 C 303.011719 10.132812 305.40625 10.59375 307.429688 11.511719 C 309.480469 12.429688 311.058594 13.734375 312.15625 15.425781 C 313.257812 17.113281 313.808594 19.117188 313.808594 21.429688 C 313.808594 23.710938 313.257812 25.714844 312.15625 27.433594 C 311.058594 29.125 309.480469 30.429688 307.429688 31.347656 C 305.40625 32.238281 303.011719 32.679688 300.246094 32.679688 L 293.953125 32.679688 L 293.953125 41.265625 L 286.726562 41.265625 L 286.726562 10.132812 Z M 299.84375 26.8125 C 302.015625 26.8125 303.667969 26.351562 304.796875 25.433594 C 305.925781 24.484375 306.492188 23.148438 306.492188 21.429688 C 306.492188 19.679688 305.925781 18.34375 304.796875 17.425781 C 303.667969 16.476562 302.015625 16.003906 299.84375 16.003906 L 293.953125 16.003906 L 293.953125 26.8125 Z M 299.84375 26.8125 "/>
<path style=" stroke:none;fill-rule:nonzero;fill:rgb(0%,0%,0%);fill-opacity:1;" d="M 347.21875 10.132812 L 347.21875 41.265625 L 339.992188 41.265625 L 339.992188 28.5 L 325.804688 28.5 L 325.804688 41.265625 L 318.578125 41.265625 L 318.578125 10.132812 L 325.804688 10.132812 L 325.804688 22.40625 L 339.992188 22.40625 L 339.992188 10.132812 Z M 347.21875 10.132812 "/>
<path style=" stroke:none;fill-rule:nonzero;fill:rgb(0%,0%,0%);fill-opacity:1;" d="M 370.167969 20.363281 C 373.976562 20.363281 376.890625 21.207031 378.914062 22.898438 C 380.964844 24.585938 381.992188 27.09375 381.992188 30.414062 C 381.992188 33.941406 380.863281 36.640625 378.601562 38.507812 C 376.371094 40.347656 373.21875 41.265625 369.144531 41.265625 L 355.042969 41.265625 L 355.042969 10.132812 L 362.226562 10.132812 L 362.226562 20.363281 Z M 368.742188 35.929688 C 370.613281 35.929688 372.074219 35.46875 373.113281 34.550781 C 374.183594 33.628906 374.71875 32.296875 374.71875 30.546875 C 374.71875 27.316406 372.726562 25.699219 368.742188 25.699219 L 362.226562 25.699219 L 362.226562 35.929688 Z M 385.960938 10.132812 L 393.144531 10.132812 L 393.144531 41.265625 L 385.960938 41.265625 Z M 385.960938 10.132812 "/>
<path style=" stroke:none;fill-rule:nonzero;fill:rgb(0%,0%,0%);fill-opacity:1;" d="M 400.921875 10.132812 L 408.105469 10.132812 L 408.105469 30.414062 L 423.007812 10.132812 L 429.789062 10.132812 L 429.789062 41.265625 L 422.648438 41.265625 L 422.648438 21.027344 L 407.75 41.265625 L 400.921875 41.265625 Z M 415.332031 8.132812 C 409.621094 8.132812 406.738281 5.863281 406.679688 1.328125 L 411.628906 1.328125 C 411.6875 3.492188 412.925781 4.574219 415.332031 4.574219 C 416.523438 4.574219 417.429688 4.304688 418.054688 3.773438 C 418.679688 3.210938 419.007812 2.394531 419.035156 1.328125 L 423.988281 1.328125 C 423.957031 3.550781 423.230469 5.242188 421.800781 6.398438 C 420.375 7.554688 418.21875 8.132812 415.332031 8.132812 Z M 415.332031 8.132812 "/>
<path style=" stroke:none;fill-rule:nonzero;fill:rgb(0%,0%,0%);fill-opacity:1;" d="M 449.363281 50 L 449.363281 40.605469 L 450.882812 40.605469 L 450.882812 48.238281 L 454.449219 48.238281 L 454.449219 44.359375 C 454.449219 42.878906 454.761719 41.75 455.378906 40.980469 C 455.996094 40.210938 456.890625 39.824219 458.054688 39.824219 C 459.28125 39.824219 460.222656 40.246094 460.875 41.085938 C 461.53125 41.917969 461.859375 43.109375 461.859375 44.664062 L 461.859375 50 Z M 460.449219 44.734375 C 460.449219 43.714844 460.25 42.9375 459.859375 42.402344 C 459.464844 41.871094 458.886719 41.601562 458.128906 41.601562 C 456.617188 41.601562 455.859375 42.648438 455.859375 44.734375 L 455.859375 48.238281 L 460.449219 48.238281 Z M 460.449219 44.734375 "/>
<path style=" stroke:none;fill-rule:nonzero;fill:rgb(0%,0%,0%);fill-opacity:1;" d="M 449.363281 27.125 L 461.859375 27.125 L 461.859375 28.867188 L 450.917969 28.867188 L 450.917969 34.382812 L 454.574219 34.507812 C 456.300781 34.566406 457.699219 34.707031 458.769531 34.933594 C 459.839844 35.148438 460.648438 35.492188 461.195312 35.964844 C 461.734375 36.441406 462 37.082031 462 37.886719 C 462 38.253906 461.953125 38.628906 461.859375 39.007812 L 460.269531 38.882812 C 460.316406 38.695312 460.339844 38.503906 460.339844 38.3125 C 460.339844 37.804688 460.136719 37.394531 459.734375 37.085938 C 459.316406 36.777344 458.699219 36.546875 457.878906 36.394531 C 457.054688 36.238281 455.972656 36.136719 454.628906 36.089844 L 449.363281 35.894531 Z M 449.363281 27.125 "/>
<path style=" stroke:none;fill-rule:nonzero;fill:rgb(0%,0%,0%);fill-opacity:1;" d="M 462 17.640625 C 462 18.898438 461.726562 20.03125 461.179688 21.039062 C 460.621094 22.046875 459.851562 22.84375 458.878906 23.421875 C 457.902344 23.992188 456.8125 24.277344 455.609375 24.277344 C 454.410156 24.277344 453.320312 23.992188 452.34375 23.421875 C 451.371094 22.84375 450.609375 22.046875 450.058594 21.039062 C 449.503906 20.03125 449.222656 18.898438 449.222656 17.640625 C 449.222656 16.394531 449.503906 15.269531 450.058594 14.261719 C 450.609375 13.253906 451.371094 12.464844 452.34375 11.894531 C 453.308594 11.324219 454.398438 11.042969 455.609375 11.042969 C 456.824219 11.042969 457.917969 11.324219 458.894531 11.894531 C 459.859375 12.464844 460.621094 13.253906 461.179688 14.261719 C 461.726562 15.269531 462 16.394531 462 17.640625 Z M 460.410156 17.640625 C 460.410156 16.726562 460.203125 15.910156 459.789062 15.1875 C 459.371094 14.453125 458.800781 13.875 458.074219 13.460938 C 457.335938 13.035156 456.515625 12.820312 455.609375 12.820312 C 454.707031 12.820312 453.890625 13.035156 453.164062 13.460938 C 452.429688 13.875 451.851562 14.453125 451.433594 15.1875 C 451.019531 15.910156 450.8125 16.726562 450.8125 17.640625 C 450.8125 18.554688 451.019531 19.386719 451.433594 20.132812 C 451.851562 20.867188 452.429688 21.449219 453.164062 21.875 C 453.890625 22.289062 454.707031 22.5 455.609375 22.5 C 456.515625 22.5 457.335938 22.289062 458.074219 21.875 C 458.800781 21.449219 459.371094 20.867188 459.789062 20.132812 C 460.203125 19.386719 460.410156 18.554688 460.410156 17.640625 Z M 460.410156 17.640625 "/>
<path style=" stroke:none;fill-rule:nonzero;fill:rgb(0%,0%,0%);fill-opacity:1;" d="M 450.917969 0.0195312 L 450.917969 6.421875 L 461.859375 6.40625 L 461.859375 8.164062 L 449.363281 8.164062 L 449.363281 0 Z M 450.917969 0.0195312 "/>
</g>
</svg>
